<svg width="174" height="172" xmlns="http://www.w3.org/2000/svg" xmlns:xlink="http://www.w3.org/1999/xlink" overflow="hidden"><defs><clipPath id="clip0"><rect x="-2" y="-1" width="174" height="172"/></clipPath><clipPath id="clip1"><rect x="-1" y="0" width="172" height="170"/></clipPath><clipPath id="clip2"><rect x="-1" y="0" width="172" height="170"/></clipPath></defs><g clip-path="url(#clip0)" transform="translate(2 1)"><g clip-path="url(#clip1)"><g clip-path="url(#clip2)"><g><path d="M84.7503 0C131.559 0 169.506 37.9472 169.506 84.7503 169.506 131.559 131.559 169.506 84.7503 169.506 37.9472 169.506 0 131.559 0 84.7503 0 37.9472 37.9419 0 84.7503 0M84.7503 42.3778C61.346 42.5001 42.4722 61.5722 42.5945 84.9765 42.7145 107.935 61.0955 126.623 84.0491 127.123L84.7503 127.123C99.0197 127.123 89.0641 108.97 99.0197 99.0197 108.869 89.1703 126.751 98.8125 127.123 85.1912L127.128 84.7503C127.125 61.3478 108.153 42.3778 84.7503 42.3778" fill="#0D53FF" fill-rule="evenodd" transform="matrix(1.00098 0 0 1 -1 0)"/><path d="M248.306 41.3631 254.782 41.3631C259.016 48.9388 263.489 54.9366 268.191 59.3619L232.077 59.3619C238.191 54.4478 243.605 48.4447 248.312 41.3631M301.346 58.7191C290.1 56.6259 280.001 48.4553 275.373 41.3631L299.466 41.3631C300.129 41.3631 300.666 40.8256 300.666 40.1625L300.666 26.3394C300.666 25.6763 300.129 25.1388 299.466 25.1388L257.136 25.1388C257.369 24.6447 257.683 23.8638 258.076 22.7747 258.649 21.4116 259.203 20.0408 259.739 18.6628 259.755 18.6203 259.792 18.5884 259.808 18.5459L260.233 17.5259C260.722 16.2934 260.658 15.7569 259.362 15.7569L241.379 15.7569C240.832 15.7558 240.332 16.0646 240.088 16.5538L239.397 17.935C238.175 20.5222 236.906 22.9287 235.604 25.1388L201.864 25.1388C201.201 25.1388 200.664 25.6763 200.664 26.3394L200.664 40.1625C200.664 40.8266 201.195 41.3631 201.864 41.3631L224.878 41.3631C219.486 48.5244 210.784 54.1822 198.99 58.8519 198.438 59.0675 198.074 59.5982 198.071 60.1906L198.071 75.0975C198.071 75.9262 198.884 76.5266 199.676 76.2769 206.964 74.0368 213.997 71.0383 220.66 67.3306L220.66 73.6153C220.66 74.29 221.207 74.8372 221.882 74.8372L280.394 74.8372C281.069 74.8372 281.616 74.2901 281.616 73.6153L281.616 68.6588C287.337 71.5116 293.818 73.7588 301.059 75.4056 301.725 75.5494 302.381 75.1266 302.524 74.4613 302.542 74.3788 302.552 74.2947 302.552 74.2103L302.552 60.1322C302.547 59.4326 302.041 58.8374 301.352 58.7191M345.716 89.8344 397.237 89.8344 397.237 71.8516 345.716 71.8516 345.716 89.8344ZM423.799 132.387 398.958 132.387 398.958 105.83 414.773 105.83C415.437 105.83 415.974 105.293 415.974 104.63L415.974 57.0562C415.974 56.3932 415.437 55.8556 414.773 55.8556L381.4 55.8556 381.4 43.4987 422.269 43.4987C422.932 43.4987 423.47 42.9612 423.47 42.2981L423.47 28.1137C423.473 27.4507 422.938 26.9108 422.275 26.9078 422.273 26.9078 422.271 26.9078 422.269 26.9078L381.4 26.9078 381.4 17.7809C381.4 17.1178 380.863 16.5803 380.2 16.5803L363.2 16.5803C362.537 16.5803 361.999 17.1179 361.999 17.7809L361.999 26.9078 321.481 26.9078C320.818 26.9078 320.28 27.4454 320.28 28.1084L320.28 42.2981C320.28 42.9622 320.811 43.4987 321.481 43.4987L361.999 43.4987 361.999 55.8556 328.185 55.8556C327.522 55.8556 326.984 56.3932 326.984 57.0562L326.984 104.63C326.984 105.294 327.521 105.83 328.185 105.83L345.684 105.83C345.684 120.907 333.349 130.332 320.269 133.062 319.594 133.194 319.106 133.782 319.101 134.47L319.101 150.737C319.101 151.481 319.77 152.07 320.508 151.964 346.991 148.192 363.38 130.363 364.746 105.83L379.908 105.83 379.908 147.656C379.908 148.591 380.667 149.356 381.602 149.356L423.799 149.356C424.462 149.356 425 148.818 425 148.155 425 148.153 425 148.151 425 148.15L425 133.588C425 132.925 424.462 132.387 423.799 132.387ZM300.757 83.8047 199.511 83.8047C198.848 83.8018 198.308 84.3369 198.305 85 198.305 85.0018 198.305 85.0035 198.305 85.0053L198.305 98.8284C198.305 99.4925 198.847 100.029 199.511 100.029L217.414 100.029 209.95 125.667C209.762 126.303 210.126 126.971 210.761 127.159 210.872 127.191 210.987 127.208 211.103 127.208L272 127.208 265.54 149.292C265.352 149.928 265.716 150.596 266.351 150.783 266.462 150.816 266.577 150.833 266.693 150.832L283.316 150.833C283.953 150.833 284.516 150.408 284.697 149.802L295.8 112.168C295.988 111.532 295.624 110.864 294.989 110.677 294.879 110.644 294.766 110.628 294.652 110.627L233.16 110.627 236.22 100.029 300.757 100.029C301.42 100.029 301.957 99.4915 301.957 98.8284L301.957 85.0053C301.957 84.3422 301.42 83.8047 300.757 83.8047" fill="#151515" fill-rule="evenodd" transform="matrix(1.00098 0 0 1 -1 0)"/></g></g></g></g></svg>